# xmcd
#
# Track frame offsets: 
#        150
#        16189
#        32807
#        53671
#        70197
#        87748
#        99492
#        115657
#        134168
#        152115
#        171223
#        190612
#
# Disc length: 2794 seconds
#
# Revision: 0
# Processed by: cddbd v1.5.2PL0 Copyright (c) Steve Scherf et al.
# Submitted via: ExactAudioCopyFreeDBPlugin 1.0
#
DISCID=9d0ae80c
DTITLE=Tuxedo - Tuxedo
DYEAR=2015
DGENRE=R&B
TTITLE0=Lost Lover
TTITLE1=R U Ready
TTITLE2=Watch the Dance
TTITLE3=So Good
TTITLE4=Two Wrongs
TTITLE5=Tuxedo Groove
TTITLE6=I Got U
TTITLE7=The Right Time
TTITLE8=Roll Along
TTITLE9=Get U Home
TTITLE10=Do It
TTITLE11=Number One
EXTD=
EXTT0=
EXTT1=
EXTT2=
EXTT3=
EXTT4=
EXTT5=
EXTT6=
EXTT7=
EXTT8=
EXTT9=
EXTT10=
EXTT11=
PLAYORDER=
